<svg width="547" height="416" viewBox="0 0 547 416" fill="none" xmlns="http://www.w3.org/2000/svg">
<g clip-path="url(#clip0_368_108)">
<path d="M230.32 0L230.068 1.13513L437.495 1.3874C497.206 1.3874 545.611 49.7383 545.611 109.383V236.552H547V15.7401C547 7.04706 539.945 0 531.242 0H230.32Z" fill="#E6E6E6"/>
<path d="M458.78 54.1501C462.024 54.1501 464.653 51.4651 464.653 48.153C464.653 44.8409 462.024 42.1559 458.78 42.1559C455.537 42.1559 452.907 44.8409 452.907 48.153C452.907 51.4651 455.537 54.1501 458.78 54.1501Z" fill="#3F3D56"/>
<path d="M438.492 54.1501C441.735 54.1501 444.365 51.4651 444.365 48.153C444.365 44.8409 441.735 42.1559 438.492 42.1559C435.248 42.1559 432.619 44.8409 432.619 48.153C432.619 51.4651 435.248 54.1501 438.492 54.1501Z" fill="#3F3D56"/>
<path d="M418.204 54.1501C421.447 54.1501 424.077 51.4651 424.077 48.153C424.077 44.8409 421.447 42.1559 418.204 42.1559C414.96 42.1559 412.331 44.8409 412.331 48.153C412.331 51.4651 414.96 54.1501 418.204 54.1501Z" fill="#3F3D56"/>
<path d="M370.146 138.856H288.008C285.19 138.856 282.897 136.566 282.897 133.751C282.897 130.937 285.19 128.647 288.008 128.647H370.146C372.963 128.647 375.256 130.937 375.256 133.751C375.256 136.566 372.963 138.856 370.146 138.856Z" fill="#E6E6E6"/>
<path d="M434.246 156.134H288.008C285.19 156.134 282.897 153.844 282.897 151.029C282.897 148.215 285.19 145.924 288.008 145.924H434.246C437.064 145.924 439.357 148.215 439.357 151.029C439.357 153.844 437.064 156.134 434.246 156.134Z" fill="#E6E6E6"/>
<path d="M461.919 182.972H260.335C255.983 182.972 252.442 179.435 252.442 175.088V109.693C252.442 105.346 255.983 101.809 260.335 101.809H461.919C466.271 101.809 469.812 105.346 469.812 109.693V175.088C469.812 179.435 466.271 182.972 461.919 182.972ZM260.335 103.196C256.748 103.196 253.831 106.111 253.831 109.693V175.088C253.831 178.67 256.748 181.584 260.335 181.584H461.919C465.506 181.584 468.423 178.67 468.423 175.088V109.693C468.423 106.111 465.506 103.196 461.919 103.196H260.335Z" fill="#3F3D56"/>
<path d="M465.747 200.479C475.335 200.479 483.108 192.715 483.108 183.137C483.108 173.559 475.335 165.794 465.747 165.794C456.158 165.794 448.385 173.559 448.385 183.137C448.385 192.715 456.158 200.479 465.747 200.479Z" fill="#3367D6"/>
<path d="M470 177.575C468.611 175.901 466.293 174.914 464.139 175.543C462.165 176.119 460.523 177.985 460.707 180.115C460.793 181.103 461.196 182.052 461.889 182.77C462.672 183.58 463.67 183.86 464.765 183.952C465.933 184.051 466.935 184.224 467.713 185.186C468.389 186.022 468.601 187.131 468.213 188.142C467.292 190.544 464.034 190.824 462.672 188.664C462.138 187.816 460.785 188.598 461.323 189.451C462.434 191.213 464.691 192.183 466.721 191.524C468.694 190.884 470.144 188.839 469.96 186.749C469.77 184.578 468.039 182.789 465.889 182.494C464.757 182.339 463.571 182.463 462.805 181.451C462.206 180.66 462.078 179.566 462.531 178.679C463.083 177.597 464.284 176.916 465.487 176.914C466.853 176.911 468.046 177.655 468.895 178.678C469.538 179.452 470.638 178.343 470 177.575Z" fill="white"/>
<path d="M463.92 172.406L463.17 194.236C463.146 194.906 464.188 194.905 464.211 194.236L464.962 172.406C464.985 171.736 463.943 171.737 463.92 172.406Z" fill="white"/>
<path d="M466.35 172.406L465.599 194.236C465.576 194.906 466.618 194.905 466.641 194.236L467.392 172.406C467.415 171.736 466.373 171.737 466.35 172.406Z" fill="white"/>
<path d="M65.7678 406.987L73.1443 406.986L76.6534 378.565L65.7663 378.566L65.7678 406.987Z" fill="#A0616A"/>
<path d="M65.5081 414.673L88.1921 414.673V414.386C88.1918 409.515 84.2389 405.567 79.3629 405.567L75.2188 402.427L67.4879 405.567L65.5078 405.567L65.5081 414.673Z" fill="#2F2E41"/>
<path d="M110.848 406.987L118.224 406.986L121.733 378.565L110.846 378.566L110.848 406.987Z" fill="#A0616A"/>
<path d="M110.588 414.673L133.272 414.673V414.386C133.272 409.515 129.319 405.567 124.443 405.567L120.299 402.427L112.568 405.567L110.588 405.567L110.588 414.673Z" fill="#2F2E41"/>
<path d="M59.2514 226.181L126.71 224.307L126.278 262.323L122.719 306.76C122.719 306.76 131.023 339.348 123.905 371.935L123.312 396.82L104.331 395.635C104.331 395.635 101.069 346.754 105.221 328.386L92.7647 262.027L80.9016 326.609C80.9016 326.609 82.6811 363.936 77.9358 378.749V392.71H64.515C64.515 392.71 50.0574 343.791 60.7342 318.906L59.2514 226.181Z" fill="#2F2E41"/>
<path d="M107.772 115.711C107.772 115.711 105.951 111.148 104.592 109.112C95.0779 109.112 93.8689 109.764 85.5637 109.112L62.5099 232.747C62.5099 232.747 49.8356 243.416 63.7532 243.416C77.6707 243.416 97.738 239.536 103.24 242.446C108.743 245.356 126.22 240.829 126.22 240.829L107.772 115.711Z" fill="#3367D6"/>
<path d="M85.9434 108.866L77.4087 117.936L71.7722 118.011C66.5591 118.08 62.3808 122.342 62.4213 127.55L64.1887 179.505C64.1887 179.505 48.2167 228.931 58.8976 230.871L56.9556 238.307L77.4446 250.916C77.4446 250.916 83.6585 217.713 84.6295 210.277C85.6005 202.841 90.4261 160.935 90.4261 160.935C90.4261 160.935 89.4845 126.462 88.8372 123.269L85.9434 108.866Z" fill="#2F2E41"/>
<path d="M104.859 109.245L100.651 130.906L111.332 188.131C111.332 188.131 108.743 241.153 116.834 246.326L129.586 243.028L128.615 232.682C128.615 232.682 129.781 230.16 129.133 220.461C128.486 210.762 124.672 193.081 124.672 193.081L130.321 128.643C130.321 128.643 116.187 115.387 110.037 117.004L104.859 109.245Z" fill="#2F2E41"/>
<path d="M35.1122 231.035L36.4282 213.397L46.6201 212.742L44.5644 231.341C44.8939 231.808 45.1619 232.33 45.3501 232.901C46.3733 236.007 44.6824 239.353 41.5732 240.375C38.4641 241.397 35.114 239.708 34.0908 236.602C33.4382 234.622 33.8931 232.546 35.1122 231.035Z" fill="#A0616A"/>
<path d="M74.3577 118.223L68.9886 118.312C65.0199 118.377 61.5126 120.906 60.2011 124.649L40.081 182.058L37.9925 192.763C37.9925 192.763 28.3407 215.881 31.9595 219.378L33.6848 225.816L46.4831 225.604L46.3956 220.329C46.3956 220.329 50.3036 219.963 50.2851 215.315C50.2851 215.315 60.4134 197.889 57.7334 192.437L64.6333 179.065L74.3577 118.223Z" fill="#2F2E41"/>
<path d="M200.066 208.636L187.077 196.615L179.167 203.068L193.352 215.289C193.429 215.856 193.589 216.42 193.841 216.966C195.209 219.937 198.728 221.237 201.702 219.87C204.676 218.504 205.977 214.988 204.609 212.018C203.737 210.124 201.988 208.913 200.066 208.636Z" fill="#A0616A"/>
<path d="M122.116 122.241L115.601 147.379L138.416 178.698L145.844 186.691C145.844 186.691 177.837 211.657 182.798 210.798L189.022 213.199L196.392 202.745L192.074 199.707C192.074 199.707 194.08 196.338 190.31 193.614C190.31 193.614 163.202 171.617 157.212 170.567L150.462 157.119L129.837 128.419L122.116 122.241Z" fill="#2F2E41"/>
<path d="M106.593 103.682C106.504 103.753 106.421 103.807 106.332 103.86C105.643 104.317 104.924 104.726 104.17 105.076C104.158 105.088 104.14 105.094 104.122 105.1C102.762 105.741 101.295 106.221 99.7442 106.506C98.1582 106.797 96.584 106.874 95.0514 106.75C87.157 106.127 80.3616 100.294 78.8528 92.1472C78.3479 89.4297 78.4904 86.7477 79.1617 84.2497C80.9021 77.7941 86.2067 72.5844 93.2278 71.285C102.964 69.4872 112.313 75.9131 114.113 85.6381C115.444 92.8295 112.272 99.8133 106.593 103.682Z" fill="#A0616A"/>
<path d="M85.5644 103.245L86.6459 98.2555C86.6459 98.2555 83.7019 95.6961 86.6459 93.3161L88.248 92.2765H90.694L92.2737 84.2341L102.338 83.5639C102.338 83.5639 112.402 81.5533 113.744 78.2023C113.744 78.2023 110.389 77.5321 111.06 74.8513C111.06 74.8513 103.009 64.7983 95.6284 67.4791C88.248 70.1599 85.5642 72.8407 85.5642 72.8407C85.5642 72.8407 73.4871 70.8301 73.4871 85.5745C73.4871 100.319 85.5644 103.245 85.5644 103.245Z" fill="#2F2E41"/>
<path d="M195.877 231.963H175.601C173.402 231.963 171.614 230.177 171.614 227.981V189.281C171.614 187.085 173.402 185.298 175.601 185.298H195.877C198.075 185.298 199.863 187.085 199.863 189.281V227.981C199.863 230.177 198.075 231.963 195.877 231.963Z" fill="#3F3D56"/>
<path d="M199.863 199.534C199.77 199.534 199.695 199.609 199.695 199.702V205.093C199.695 205.186 199.77 205.262 199.863 205.262C199.956 205.262 200.032 205.186 200.032 205.093V199.702C200.032 199.609 199.956 199.534 199.863 199.534Z" fill="#3F3D56"/>
<path d="M199.484 189.281V227.98C199.484 229.892 197.995 231.455 196.112 231.576H196.111C196.083 231.578 196.055 231.58 196.027 231.58C195.977 231.583 195.927 231.584 195.876 231.584C195.876 231.584 195.691 231.57 195.352 231.545C195.01 231.52 194.511 231.482 193.89 231.432C193.703 231.418 193.507 231.402 193.299 231.385C192.886 231.351 192.433 231.314 191.946 231.272C191.752 231.256 191.551 231.238 191.346 231.221C190.299 231.131 189.126 231.025 187.889 230.906C187.68 230.886 187.469 230.866 187.257 230.845C187.201 230.839 187.144 230.834 187.088 230.828C186.206 230.742 185.299 230.648 184.389 230.549C184.333 230.543 184.276 230.537 184.221 230.531C182.653 230.358 181.08 230.17 179.607 229.968C178.475 229.813 177.402 229.65 176.439 229.481C176.126 229.425 175.824 229.369 175.535 229.313C175.479 229.302 175.422 229.291 175.367 229.279C173.328 228.872 171.994 228.432 171.994 227.98V189.281C171.994 187.29 173.608 185.677 175.601 185.677H177.755C178.099 185.677 178.375 185.945 178.405 186.288C178.407 186.311 178.41 186.333 178.414 186.356C178.477 186.701 178.793 186.941 179.144 186.941H192.334C192.685 186.941 193.001 186.701 193.063 186.356C193.068 186.333 193.07 186.311 193.073 186.288C193.102 185.945 193.379 185.677 193.723 185.677H195.876C197.869 185.677 199.484 187.29 199.484 189.281Z" fill="#3367D6"/>
<path d="M171.53 195.491C171.437 195.491 171.361 195.566 171.361 195.659V197.007C171.361 197.1 171.437 197.175 171.53 197.175C171.623 197.175 171.698 197.1 171.698 197.007V195.659C171.698 195.566 171.623 195.491 171.53 195.491Z" fill="#3F3D56"/>
<path d="M171.53 199.534C171.437 199.534 171.361 199.609 171.361 199.702V202.313C171.361 202.406 171.437 202.482 171.53 202.482C171.623 202.482 171.698 202.406 171.698 202.313V199.702C171.698 199.609 171.623 199.534 171.53 199.534Z" fill="#3F3D56"/>
<path d="M171.53 203.24C171.437 203.24 171.361 203.316 171.361 203.408V206.02C171.361 206.113 171.437 206.188 171.53 206.188C171.623 206.188 171.698 206.113 171.698 206.02V203.408C171.698 203.316 171.623 203.24 171.53 203.24Z" fill="#3F3D56"/>
<path d="M177.517 186.267H174.65C174.533 186.267 174.439 186.361 174.439 186.478C174.439 186.594 174.533 186.688 174.65 186.688H177.517C177.633 186.688 177.728 186.594 177.728 186.478C177.728 186.361 177.633 186.267 177.517 186.267Z" fill="#3F3D56"/>
<path d="M194.256 186.688C194.442 186.688 194.593 186.537 194.593 186.351C194.593 186.165 194.442 186.014 194.256 186.014C194.069 186.014 193.918 186.165 193.918 186.351C193.918 186.537 194.069 186.688 194.256 186.688Z" fill="#3F3D56"/>
<path d="M195.183 186.688C195.37 186.688 195.521 186.537 195.521 186.351C195.521 186.165 195.37 186.014 195.183 186.014C194.997 186.014 194.846 186.165 194.846 186.351C194.846 186.537 194.997 186.688 195.183 186.688Z" fill="#3F3D56"/>
<path d="M196.111 186.688C196.297 186.688 196.448 186.537 196.448 186.351C196.448 186.165 196.297 186.014 196.111 186.014C195.925 186.014 195.774 186.165 195.774 186.351C195.774 186.537 195.925 186.688 196.111 186.688Z" fill="#3F3D56"/>
<path d="M186.187 219.663C192.084 219.663 196.864 214.888 196.864 208.998C196.864 203.108 192.084 198.333 186.187 198.333C180.29 198.333 175.51 203.108 175.51 208.998C175.51 214.888 180.29 219.663 186.187 219.663Z" fill="white"/>
<path d="M188.803 205.578C187.949 204.549 186.523 203.941 185.198 204.328C183.985 204.682 182.975 205.83 183.088 207.14C183.141 207.748 183.389 208.331 183.815 208.773C184.296 209.271 184.91 209.443 185.583 209.5C186.301 209.56 186.918 209.667 187.396 210.258C187.812 210.772 187.942 211.454 187.704 212.076C187.137 213.554 185.134 213.726 184.296 212.397C183.968 211.876 183.136 212.357 183.467 212.881C184.15 213.965 185.538 214.561 186.786 214.156C188 213.762 188.891 212.505 188.778 211.219C188.661 209.884 187.597 208.784 186.275 208.603C185.578 208.508 184.849 208.584 184.378 207.961C184.01 207.475 183.931 206.802 184.209 206.257C184.549 205.591 185.288 205.173 186.027 205.172C186.867 205.17 187.601 205.627 188.123 206.256C188.518 206.732 189.195 206.05 188.803 205.578Z" fill="#3367D6"/>
<path d="M185.064 202.399L184.602 215.824C184.588 216.236 185.229 216.235 185.243 215.824L185.705 202.399C185.719 201.988 185.078 201.988 185.064 202.399Z" fill="#3367D6"/>
<path d="M186.558 202.399L186.096 215.824C186.082 216.236 186.723 216.235 186.737 215.824L187.199 202.399C187.213 201.988 186.572 201.988 186.558 202.399Z" fill="#3367D6"/>
<path d="M36.8734 404.234C35.4694 404.322 34.6935 402.579 35.7557 401.564L35.8613 401.144C35.8474 401.111 35.8334 401.077 35.8194 401.044C34.3995 397.662 29.5876 397.685 28.1799 401.072C26.9304 404.078 25.3397 407.089 24.948 410.267C24.7724 411.67 24.8514 413.1 25.163 414.476C22.2353 408.088 20.6947 401.113 20.6947 394.097C20.6947 392.335 20.7913 390.572 20.9888 388.814C21.1512 387.376 21.375 385.947 21.6648 384.531C23.2317 376.875 26.6247 369.584 31.5188 363.494C33.8715 362.209 35.8335 360.201 37.0186 357.794C37.4444 356.926 37.778 355.992 37.936 355.041C37.6682 355.076 36.9264 351.003 37.1284 350.753C36.7552 350.187 36.0874 349.906 35.6799 349.354C33.6531 346.609 30.8608 347.089 29.4031 350.819C26.2891 352.388 26.259 354.992 28.1697 357.496C29.3853 359.089 29.5523 361.245 30.619 362.95C30.5092 363.091 30.3951 363.227 30.2854 363.367C28.2731 365.945 26.5326 368.716 25.0655 371.627C25.4801 368.392 24.8679 364.494 23.8243 361.981C22.6362 359.119 20.4094 356.707 18.4485 354.233C16.093 351.26 11.263 352.557 10.848 356.326C10.844 356.362 10.8401 356.399 10.8362 356.435C11.1275 356.599 11.4129 356.774 11.6916 356.958C13.2815 358.008 12.732 360.47 10.8482 360.76L10.8055 360.767C10.9109 361.815 11.0908 362.854 11.3542 363.875C8.83851 373.593 14.2697 377.133 22.0246 377.292C22.1958 377.379 22.3626 377.467 22.5338 377.551C21.7481 379.76 21.1204 382.027 20.6552 384.324C20.2382 386.354 19.9485 388.406 19.7861 390.467C19.5842 393.067 19.6017 395.68 19.8212 398.276L19.808 398.184C19.2506 395.325 17.6968 392.655 15.4406 390.805C12.0797 388.047 7.33131 387.031 3.70544 384.815C1.96005 383.747 -0.276539 385.126 0.0280766 387.148L0.042905 387.244C0.582785 387.464 1.10949 387.718 1.61866 388.003C1.90993 388.167 2.19527 388.341 2.47401 388.526C4.06388 389.576 3.51442 392.038 1.6306 392.328L1.58791 392.335C1.55719 392.339 1.53084 392.344 1.50017 392.348C2.42632 394.545 3.71675 396.583 5.33202 398.342C6.905 406.825 13.661 407.63 20.8878 405.159H20.8922C21.6823 408.597 22.8367 411.955 24.3203 415.156H36.5665C36.6104 415.02 36.6499 414.88 36.6894 414.744C35.557 414.814 34.4157 414.748 33.3008 414.542C34.2094 413.428 35.118 412.306 36.0266 411.192C36.0486 411.17 36.0661 411.148 36.0837 411.127C36.5445 410.557 37.0098 409.991 37.4707 409.421L37.4709 409.42C37.4998 407.671 37.2894 405.926 36.8734 404.234Z" fill="#F2F2F2"/>
<path d="M173.844 415.192C173.844 415.64 173.484 416 173.035 416H0.903979C0.455475 416 0.0952759 415.64 0.0952759 415.192C0.0952759 414.744 0.455475 414.384 0.903979 414.384H173.035C173.484 414.384 173.844 414.744 173.844 415.192Z" fill="#CCCCCC"/>
</g>
<defs>
<clipPath id="clip0_368_108">
<rect width="547" height="416" fill="white"/>
</clipPath>
</defs>
</svg>
