<svg width="20" height="16" viewBox="0 0 20 16" fill="none" xmlns="http://www.w3.org/2000/svg">
<path d="M17.7083 0.5H2.29167C1.0275 0.5 0 1.5275 0 2.79167V13.2083C0 14.4725 1.0275 15.5 2.29167 15.5H17.7083C18.9725 15.5 20 14.4725 20 13.2083V2.79167C20 1.5275 18.9725 0.5 17.7083 0.5ZM6.25 3.83333C7.39833 3.83333 8.33333 4.76833 8.33333 5.91667C8.33333 7.065 7.39833 8 6.25 8C5.10167 8 4.16667 7.065 4.16667 5.91667C4.16667 4.76833 5.10167 3.83333 6.25 3.83333ZM10 11.5417C10 11.8867 9.72 12.1667 9.375 12.1667H3.125C2.78 12.1667 2.5 11.8867 2.5 11.5417V11.125C2.5 9.86083 3.5275 8.83333 4.79167 8.83333H7.70833C8.9725 8.83333 10 9.86083 10 11.125V11.5417ZM16.875 12.1667H12.2917C11.9467 12.1667 11.6667 11.8867 11.6667 11.5417C11.6667 11.1967 11.9467 10.9167 12.2917 10.9167H16.875C17.22 10.9167 17.5 11.1967 17.5 11.5417C17.5 11.8867 17.22 12.1667 16.875 12.1667ZM16.875 8.83333H12.2917C11.9467 8.83333 11.6667 8.55333 11.6667 8.20833C11.6667 7.86333 11.9467 7.58333 12.2917 7.58333H16.875C17.22 7.58333 17.5 7.86333 17.5 8.20833C17.5 8.55333 17.22 8.83333 16.875 8.83333ZM16.875 5.5H12.2917C11.9467 5.5 11.6667 5.22 11.6667 4.875C11.6667 4.53 11.9467 4.25 12.2917 4.25H16.875C17.22 4.25 17.5 4.53 17.5 4.875C17.5 5.22 17.22 5.5 16.875 5.5Z" fill="#A7A7A7"/>
</svg>
