<svg width="18" height="14" viewBox="0 0 18 14" fill="none" xmlns="http://www.w3.org/2000/svg">
<path d="M0.359985 11.032C0.359985 12.112 1.22399 13.048 2.37599 13.048H15.696C16.776 13.048 17.712 12.184 17.712 11.032V10.384H0.431985V11.032H0.359985Z" fill="#A7A7A7"/>
<path d="M15.624 0.952026H2.37599C1.29599 0.952026 0.359985 1.81603 0.359985 2.96803V8.94403H17.64V2.96803C17.64 1.88803 16.776 0.952026 15.624 0.952026ZM15.912 5.63203C15.912 5.92003 15.696 6.13603 15.408 6.13603H12.096C11.808 6.13603 11.592 5.92003 11.592 5.63203V3.40003C11.592 3.11203 11.808 2.89603 12.096 2.89603H15.408C15.696 2.89603 15.912 3.11203 15.912 3.40003V5.63203Z" fill="#A7A7A7"/>
</svg>
