<svg width="20" height="20" viewBox="0 0 20 20" fill="none" xmlns="http://www.w3.org/2000/svg">
<g clip-path="url(#clip0_53_2439)">
<path d="M9.99983 0C4.47716 0 0 4.47722 0 9.9999C0 15.5224 4.47709 20 9.9997 20C15.5223 20 19.9999 15.5224 19.9999 9.9999C19.9999 4.47722 15.5226 0 9.99983 0ZM14.5121 8.77638L10.7758 12.5127C10.74 12.5686 10.6994 12.6219 10.6504 12.6704C10.464 12.857 10.2182 12.9467 9.97403 12.9424C9.72957 12.9465 9.48437 12.857 9.29797 12.6706C9.24904 12.6219 9.20791 12.5686 9.17191 12.5127L5.41928 8.75965C5.23688 8.57758 5.14542 8.33865 5.14575 8.09985C5.14542 7.86092 5.23688 7.62212 5.41895 7.43973C5.78361 7.07506 6.3746 7.07526 6.73947 7.43973L9.97403 10.674L13.1915 7.45599C13.5561 7.09133 14.1473 7.09166 14.5121 7.45599C14.8769 7.82059 14.8764 8.41158 14.5121 8.77638Z" fill="#A7A7A7"/>
</g>
<defs>
<clipPath id="clip0_53_2439">
<rect width="20" height="20" fill="white"/>
</clipPath>
</defs>
</svg>
