<svg width="20" height="13" viewBox="0 0 20 13" fill="none" xmlns="http://www.w3.org/2000/svg">
<path d="M10 0C5.45455 0 1.57273 2.69533 0 6.5C1.57273 10.3047 5.45455 13 10 13C14.5455 13 18.4273 10.3047 20 6.5C18.4273 2.69533 14.5455 0 10 0ZM10 10.8333C7.49091 10.8333 5.45455 8.892 5.45455 6.5C5.45455 4.108 7.49091 2.16667 10 2.16667C12.5091 2.16667 14.5455 4.108 14.5455 6.5C14.5455 8.892 12.5091 10.8333 10 10.8333ZM10 3.9C8.49091 3.9 7.27273 5.06133 7.27273 6.5C7.27273 7.93867 8.49091 9.1 10 9.1C11.5091 9.1 12.7273 7.93867 12.7273 6.5C12.7273 5.06133 11.5091 3.9 10 3.9Z" fill="#C3C3C3"/>
</svg>
