<svg width="10" height="10" viewBox="0 0 10 10" fill="none" xmlns="http://www.w3.org/2000/svg">
<path d="M0.833582 4.13864H7.15858L4.40858 1.41764C4.25166 1.2619 4.16351 1.05068 4.16351 0.830435C4.16351 0.61019 4.25166 0.398965 4.40858 0.243229C4.5655 0.087492 4.77833 0 5.00025 0C5.22217 0 5.435 0.087492 5.59192 0.243229L9.75858 4.37848C9.83445 4.45714 9.89392 4.54989 9.93358 4.65141C10.0169 4.85276 10.0169 5.07861 9.93358 5.27997C9.89392 5.38149 9.83445 5.47424 9.75858 5.55289L5.59192 9.68815C5.51445 9.76566 5.42228 9.82719 5.32073 9.86918C5.21918 9.91117 5.11026 9.93279 5.00025 9.93279C4.89024 9.93279 4.78132 9.91117 4.67977 9.86918C4.57822 9.82719 4.48605 9.76566 4.40858 9.68815C4.33047 9.61126 4.26848 9.51979 4.22617 9.41901C4.18387 9.31822 4.16208 9.21012 4.16208 9.10094C4.16208 8.99176 4.18387 8.88366 4.22617 8.78288C4.26848 8.68209 4.33047 8.59062 4.40858 8.51374L7.15858 5.79274H0.833582C0.612569 5.79274 0.400606 5.7056 0.244326 5.5505C0.0880461 5.3954 0.000248909 5.18504 0.000248909 4.96569C0.000248909 4.74634 0.0880461 4.53598 0.244326 4.38088C0.400606 4.22577 0.612569 4.13864 0.833582 4.13864Z" fill="#F5F5F5"/>
</svg>
