<svg width="40" height="22" viewBox="0 0 40 22" fill="none" xmlns="http://www.w3.org/2000/svg">
<path d="M27.5098 7.60938V3.56641C27.5098 1.7207 29.7949 0.753906 31.1133 2.07227L38.6719 9.71875C39.5508 10.5098 39.5508 11.8281 38.6719 12.6191L31.1133 20.2656C29.7949 21.584 27.5098 20.6172 27.5098 18.7715V14.6406H1.05469C0.439453 14.6406 0 14.2012 0 13.5859V8.66406C0 8.13672 0.439453 7.60938 1.05469 7.60938H27.5098Z" fill="white"/>
<path d="M27.5098 7.60938V8.60938H28.5098V7.60938H27.5098ZM31.1133 2.07227L31.8245 1.36925L31.8204 1.36516L31.1133 2.07227ZM38.6719 9.71875L37.9607 10.4218L37.9812 10.4425L38.0029 10.462L38.6719 9.71875ZM38.6719 12.6191L38.0029 11.8758L37.9812 11.8954L37.9607 11.9161L38.6719 12.6191ZM31.1133 20.2656L31.8204 20.9727L31.8245 20.9686L31.1133 20.2656ZM27.5098 14.6406H28.5098V13.6406H27.5098V14.6406ZM28.5098 7.60938V3.56641H26.5098V7.60938H28.5098ZM28.5098 3.56641C28.5098 2.60062 29.7255 2.09874 30.4062 2.77937L31.8204 1.36516C29.8643 -0.590924 26.5098 0.840785 26.5098 3.56641H28.5098ZM30.4021 2.77527L37.9607 10.4218L39.3831 9.01574L31.8245 1.36926L30.4021 2.77527ZM38.0029 10.462C38.4404 10.8558 38.4404 11.4821 38.0029 11.8758L39.3408 13.3624C40.6611 12.1742 40.6611 10.1637 39.3408 8.97546L38.0029 10.462ZM37.9607 11.9161L30.4021 19.5626L31.8245 20.9686L39.3831 13.3221L37.9607 11.9161ZM30.4062 19.5585C29.7255 20.2392 28.5098 19.7373 28.5098 18.7715H26.5098C26.5098 21.4971 29.8643 22.9288 31.8204 20.9727L30.4062 19.5585ZM28.5098 18.7715V14.6406H26.5098V18.7715H28.5098ZM27.5098 13.6406H1.05469V15.6406H27.5098V13.6406ZM1.05469 13.6406C1.0206 13.6406 1.00387 13.6347 1.00001 13.6332C0.996326 13.6317 0.999123 13.6323 1.00374 13.6369C1.00835 13.6415 1.00891 13.6443 1.00744 13.6406C1.00591 13.6368 1 13.62 1 13.5859H-1C-1 14.7535 -0.112832 15.6406 1.05469 15.6406V13.6406ZM1 13.5859V8.66406H-1V13.5859H1ZM1 8.66406C1 8.6706 0.99884 8.66756 1.00317 8.65703C1.0075 8.64649 1.01469 8.63507 1.02364 8.62559C1.03221 8.61652 1.03904 8.61269 1.04193 8.61138C1.04337 8.61073 1.04615 8.60938 1.05469 8.60938V6.60938C-0.165915 6.60938 -1 7.63906 -1 8.66406H1ZM1.05469 8.60938H27.5098V6.60938H1.05469V8.60938Z" fill="white"/>
</svg>
