<svg width="34" height="34" viewBox="0 0 34 34" fill="none" xmlns="http://www.w3.org/2000/svg">
<g filter="url(#filter0_f_146_29)">
<circle cx="17" cy="17" r="16" fill="white"/>
</g>
<path d="M16.0072 22C15.8754 22.0007 15.7448 21.9756 15.6228 21.9259C15.5008 21.8762 15.3898 21.803 15.2962 21.7104C15.2024 21.6176 15.1279 21.5072 15.077 21.3855C15.0262 21.2639 15 21.1334 15 21.0016C15 20.8698 15.0262 20.7393 15.077 20.6176C15.1279 20.4959 15.2024 20.3855 15.2962 20.2927L18.6108 17.0079L15.4264 13.7031C15.2399 13.516 15.1352 13.263 15.1352 12.9992C15.1352 12.7354 15.2399 12.4824 15.4264 12.2953C15.5195 12.2018 15.6302 12.1275 15.7523 12.0768C15.8743 12.0261 16.0052 12 16.1374 12C16.2696 12 16.4005 12.0261 16.5225 12.0768C16.6445 12.1275 16.7553 12.2018 16.8484 12.2953L20.7137 16.289C20.8972 16.4756 21 16.7266 21 16.9879C21 17.2492 20.8972 17.5002 20.7137 17.6868L16.7082 21.6805C16.6183 21.7773 16.5101 21.8553 16.3898 21.9102C16.2694 21.965 16.1394 21.9955 16.0072 22V22Z" fill="#3367D6"/>
<defs>
<filter id="filter0_f_146_29" x="0" y="0" width="34" height="34" filterUnits="userSpaceOnUse" color-interpolation-filters="sRGB">
<feFlood flood-opacity="0" result="BackgroundImageFix"/>
<feBlend mode="normal" in="SourceGraphic" in2="BackgroundImageFix" result="shape"/>
<feGaussianBlur stdDeviation="0.5" result="effect1_foregroundBlur_146_29"/>
</filter>
</defs>
</svg>
