<svg width="30" height="29" viewBox="0 0 30 29" fill="none" xmlns="http://www.w3.org/2000/svg">
<path d="M29.6251 13.5V22.5C29.7131 23.26 29.6282 24.03 29.3767 24.7526C29.1252 25.4751 28.7135 26.1314 28.1725 26.6724C27.6315 27.2134 26.9752 27.6251 26.2527 27.8766C25.5301 28.1282 24.76 28.2131 24.0001 28.125H6.00005C5.24007 28.2131 4.47 28.1282 3.74745 27.8766C3.0249 27.6251 2.36859 27.2134 1.8276 26.6724C1.2866 26.1314 0.874943 25.4751 0.623406 24.7526C0.37187 24.03 0.286969 23.26 0.375055 22.5V7.49998C0.286969 6.73999 0.37187 5.96992 0.623406 5.24737C0.874943 4.52483 1.2866 3.86851 1.8276 3.32752C2.36859 2.78653 3.0249 2.37487 3.74745 2.12333C4.47 1.87179 5.24007 1.78689 6.00005 1.87498H18.0001C18.2984 1.87498 18.5846 1.9935 18.7955 2.20448C19.0065 2.41546 19.1251 2.70161 19.1251 2.99998C19.1251 3.29835 19.0065 3.5845 18.7955 3.79547C18.5846 4.00645 18.2984 4.12498 18.0001 4.12498H6.00005C3.63455 4.12498 2.62505 5.13448 2.62505 7.49998V21.375L6.43505 17.565C6.71827 17.284 7.10107 17.1263 7.50005 17.1263C7.89903 17.1263 8.28184 17.284 8.56505 17.565L9.97505 18.975C10.1153 19.1124 10.3037 19.1894 10.5001 19.1894C10.6964 19.1894 10.8849 19.1124 11.0251 18.975L18.4351 11.565C18.7183 11.284 19.1011 11.1263 19.5001 11.1263C19.899 11.1263 20.2818 11.284 20.5651 11.565L27.3751 18.375V13.5C27.3751 13.2016 27.4936 12.9155 27.7046 12.7045C27.9155 12.4935 28.2017 12.375 28.5001 12.375C28.7984 12.375 29.0846 12.4935 29.2956 12.7045C29.5065 12.9155 29.6251 13.2016 29.6251 13.5ZM8.98955 8.62498C8.49154 8.62637 8.01443 8.82536 7.66302 9.17825C7.3116 9.53114 7.11461 10.0091 7.11531 10.5071C7.116 11.0051 7.31433 11.4825 7.66673 11.8344C8.01912 12.1863 8.49679 12.384 8.9948 12.384C9.49282 12.384 9.97048 12.1863 10.3229 11.8344C10.6753 11.4825 10.8736 11.0051 10.8743 10.5071C10.875 10.0091 10.678 9.53114 10.3266 9.17825C9.97518 8.82536 9.49807 8.62637 9.00005 8.62498H8.98955ZM24.7951 4.54498L25.1251 4.21648V7.49998C25.1251 7.79835 25.2436 8.0845 25.4546 8.29547C25.6655 8.50645 25.9517 8.62498 26.2501 8.62498C26.5484 8.62498 26.8346 8.50645 27.0456 8.29547C27.2565 8.0845 27.3751 7.79835 27.3751 7.49998V4.21648L27.7051 4.54498C27.9183 4.7437 28.2004 4.85188 28.4918 4.84674C28.7833 4.8416 29.0614 4.72353 29.2675 4.51741C29.4736 4.31129 29.5917 4.03321 29.5968 3.74176C29.602 3.45031 29.4938 3.16824 29.2951 2.95498L27.0451 0.704978C26.8339 0.494669 26.5481 0.376587 26.2501 0.376587C25.952 0.376587 25.6662 0.494669 25.4551 0.704978L23.2051 2.95498C23.0063 3.16824 22.8981 3.45031 22.9033 3.74176C22.9084 4.03321 23.0265 4.31129 23.2326 4.51741C23.4387 4.72353 23.7168 4.8416 24.0083 4.84674C24.2997 4.85188 24.5818 4.7437 24.7951 4.54498Z" fill="#A7A7A7"/>
</svg>
