<svg width="20" height="20" viewBox="0 0 20 20" fill="none" xmlns="http://www.w3.org/2000/svg">
<path fill-rule="evenodd" clip-rule="evenodd" d="M1.6665 10C1.6665 5.39765 5.39746 1.66669 9.99984 1.66669C14.6022 1.66669 18.3332 5.39765 18.3332 10C18.3332 14.6024 14.6022 18.3334 9.99984 18.3334C5.39746 18.3334 1.6665 14.6024 1.6665 10ZM9.99975 5.00002C8.15881 5.00002 6.66643 6.4924 6.66643 8.33335C6.66643 10.1743 8.15881 11.6667 9.99975 11.6667C11.8407 11.6667 13.3331 10.1743 13.3331 8.33335C13.3331 6.4924 11.8407 5.00002 9.99975 5.00002ZM14.2594 13.3312C14.8909 13.7379 14.8601 14.6243 14.285 15.1074C13.1263 16.0805 11.6316 16.6667 9.99992 16.6667C8.37909 16.6667 6.8933 16.0883 5.7378 15.1265C5.1576 14.6436 5.12685 13.7527 5.7611 13.3434C5.95854 13.2159 6.17355 13.1043 6.40691 13.0081C7.3458 12.621 8.545 12.5 9.99984 12.5C11.462 12.5 12.668 12.6133 13.6093 12.9962C13.8445 13.0919 14.061 13.2034 14.2594 13.3312Z" fill="#A7A7A7"/>
</svg>
