<svg width="175" height="23" viewBox="0 0 175 23" fill="none" xmlns="http://www.w3.org/2000/svg">
<path d="M10.3672 2.20312C10.8359 1.26562 12.1641 1.30469 12.5938 2.20312L15.1719 7.39844L20.875 8.21875C21.8906 8.375 22.2812 9.625 21.5391 10.3672L17.4375 14.3906L18.4141 20.0547C18.5703 21.0703 17.4766 21.8516 16.5781 21.3828L11.5 18.6875L6.38281 21.3828C5.48438 21.8516 4.39062 21.0703 4.54688 20.0547L5.52344 14.3906L1.42188 10.3672C0.679688 9.625 1.07031 8.375 2.08594 8.21875L7.82812 7.39844L10.3672 2.20312Z" fill="#FFCA00"/>
<path d="M48.3672 2.20312C48.8359 1.26562 50.1641 1.30469 50.5938 2.20312L53.1719 7.39844L58.875 8.21875C59.8906 8.375 60.2812 9.625 59.5391 10.3672L55.4375 14.3906L56.4141 20.0547C56.5703 21.0703 55.4766 21.8516 54.5781 21.3828L49.5 18.6875L44.3828 21.3828C43.4844 21.8516 42.3906 21.0703 42.5469 20.0547L43.5234 14.3906L39.4219 10.3672C38.6797 9.625 39.0703 8.375 40.0859 8.21875L45.8281 7.39844L48.3672 2.20312Z" fill="#FFCA00"/>
<path d="M86.3672 2.20312C86.8359 1.26562 88.1641 1.30469 88.5938 2.20312L91.1719 7.39844L96.875 8.21875C97.8906 8.375 98.2812 9.625 97.5391 10.3672L93.4375 14.3906L94.4141 20.0547C94.5703 21.0703 93.4766 21.8516 92.5781 21.3828L87.5 18.6875L82.3828 21.3828C81.4844 21.8516 80.3906 21.0703 80.5469 20.0547L81.5234 14.3906L77.4219 10.3672C76.6797 9.625 77.0703 8.375 78.0859 8.21875L83.8281 7.39844L86.3672 2.20312Z" fill="#FFCA00"/>
<path d="M124.367 2.20312C124.836 1.26562 126.164 1.30469 126.594 2.20312L129.172 7.39844L134.875 8.21875C135.891 8.375 136.281 9.625 135.539 10.3672L131.438 14.3906L132.414 20.0547C132.57 21.0703 131.477 21.8516 130.578 21.3828L125.5 18.6875L120.383 21.3828C119.484 21.8516 118.391 21.0703 118.547 20.0547L119.523 14.3906L115.422 10.3672C114.68 9.625 115.07 8.375 116.086 8.21875L121.828 7.39844L124.367 2.20312Z" fill="#FFCA00"/>
<path d="M172.875 8.21875C173.891 8.375 174.32 9.625 173.578 10.3672L169.438 14.3906L170.414 20.0547C170.531 20.875 169.906 21.5 169.164 21.5C168.969 21.5 168.773 21.4609 168.578 21.3828L163.461 18.6875L158.383 21.3828C158.188 21.4609 157.992 21.5 157.797 21.5C157.055 21.5 156.391 20.875 156.547 20.0547L157.523 14.3906L153.383 10.3672C152.641 9.625 153.07 8.375 154.086 8.21875L159.789 7.39844L162.367 2.20312C162.602 1.73438 163.031 1.5 163.461 1.5C163.93 1.5 164.359 1.73438 164.594 2.20312L167.172 7.39844L172.875 8.21875ZM168.109 13.0234L171.352 9.89844L166.898 9.23438L165.922 9.11719L165.492 8.21875L163.5 4.19531L163.461 16.5781L164.359 17.0469L168.344 19.1172L167.562 14.7031L167.406 13.7266L168.109 13.0234Z" fill="#FFCA00"/>
</svg>
