<svg width="99" height="17" viewBox="0 0 99 17" fill="none" xmlns="http://www.w3.org/2000/svg">
<path d="M9.09815 0.360596L11.1054 6.06493H17.601L12.3459 9.5904L14.3532 15.2947L9.09815 11.7693L3.84309 15.2947L5.85035 9.5904L0.595291 6.06493H7.0909L9.09815 0.360596Z" fill="#FBB040"/>
<path d="M29.2138 0.360596L31.2211 6.06493H37.7167L32.4616 9.5904L34.4689 15.2947L29.2138 11.7693L23.9588 15.2947L25.966 9.5904L20.711 6.06493H27.2066L29.2138 0.360596Z" fill="#FBB040"/>
<path d="M49.3313 0.360596L51.3386 6.06493H57.8342L52.5791 9.5904L54.5864 15.2947L49.3313 11.7693L44.0762 15.2947L46.0835 9.5904L40.8284 6.06493H47.324L49.3313 0.360596Z" fill="#FBB040"/>
<path d="M69.4439 0.360596L71.4511 6.06493H77.9467L72.6917 9.5904L74.6989 15.2947L69.4439 11.7693L64.1888 15.2947L66.196 9.5904L60.941 6.06493H67.4366L69.4439 0.360596Z" fill="#FBB040"/>
<path d="M89.5609 0.360596L91.5681 6.06493H98.0637L92.8087 9.5904L94.8159 15.2947L89.5609 11.7693L84.3058 15.2947L86.3131 9.5904L81.058 6.06493H87.5536L89.5609 0.360596Z" fill="#FBB040"/>
</svg>
